<svg width="20" height="19" viewBox="0 0 20 19" fill="none" xmlns="http://www.w3.org/2000/svg">
<path fill-rule="evenodd" clip-rule="evenodd" d="M19 2.95801C19.009 3.56501 18.933 4.32601 18.866 4.88101C18.8448 5.06436 18.8114 5.24609 18.766 5.42501C19.622 7.01001 20 8.91701 20 11C20 13.468 18.813 15.501 16.964 16.887C15.132 18.26 12.66 19 10 19C7.34 19 4.868 18.26 3.036 16.887C1.187 15.501 0 13.468 0 11C0 8.91701 0.377 7.01001 1.235 5.42501C1.18965 5.24609 1.15625 5.06436 1.135 4.88101C1.066 4.32601 0.99 3.56501 1 2.95801C1.01 2.27501 1.1 1.59201 1.199 0.91401C1.245 0.60001 1.317 0.30501 1.658 0.11901C2.006 -0.0709903 2.372 -0.000990294 2.733 0.10201C3.951 0.44701 5.093 0.93201 6.167 1.51201C7.3 1.17301 8.578 1.00001 10 1.00001C11.422 1.00001 12.7 1.17301 13.832 1.51301C14.9211 0.917614 16.0728 0.444728 17.266 0.10301C17.627 9.6336e-06 17.994 -0.0709903 18.341 0.11901C18.681 0.30501 18.754 0.60001 18.801 0.91401C18.899 1.59201 18.99 2.27501 19 2.95801ZM18 11C18 9.31301 17.612 7.00001 15.5 7.00001C14.548 7.00001 13.647 7.25001 12.747 7.50001C11.848 7.75001 10.95 8.00001 10 8.00001C9.05 8.00001 8.152 7.75001 7.253 7.50001C6.353 7.25001 5.453 7.00001 4.5 7.00001C2.394 7.00001 2 9.32001 2 11C2 12.764 2.827 14.231 4.236 15.287C5.66 16.356 7.69 17 10 17C12.31 17 14.339 16.355 15.764 15.287C17.173 14.23 18 12.764 18 11ZM8 11.5C8 12.88 7.328 14 6.5 14C5.672 14 5 12.88 5 11.5C5 10.12 5.672 9.00001 6.5 9.00001C7.328 9.00001 8 10.12 8 11.5ZM13.5 14C14.328 14 15 12.88 15 11.5C15 10.12 14.328 9.00001 13.5 9.00001C12.672 9.00001 12 10.12 12 11.5C12 12.88 12.672 14 13.5 14Z" fill="#C78024"/>
</svg>
